HIERARCHY
ROOT SpineBase
{
  OFFSET 0.000000 0.000000 0.000000
  CHANNELS 6 Xposition Yposition Zposition Zrotation Xrotation Yrotation
  JOINT SpineMid
  {
    OFFSET 0.000000 34.050776 0.000000
    CHANNELS 3 Zrotation Xrotation Yrotation
    JOINT SpineShoulder
    {
      OFFSET -0.228155 25.207099 -0.843779
      CHANNELS 3 Zrotation Xrotation Yrotation
      JOINT Neck
      {
        OFFSET -0.115661 8.332678 -0.622559
        CHANNELS 3 Zrotation Xrotation Yrotation
        JOINT Head
        {
          OFFSET 7.186697 12.759135 -1.052336
          CHANNELS 3 Zrotation Xrotation Yrotation
          End Site
          {
            OFFSET 0 0 0
          }
        }
      }
      JOINT ShoulderLeft
      {
        OFFSET -14.656655 -2.708945 -10.890636
        CHANNELS 3 Zrotation Xrotation Yrotation
        JOINT ElbowLeft
        {
          OFFSET -11.021291 -27.329440 -3.169227
          CHANNELS 3 Zrotation Xrotation Yrotation
          JOINT WristLeft
          {
            OFFSET -0.474187 -24.308416 -4.816200
            CHANNELS 3 Zrotation Xrotation Yrotation
            JOINT HandLeft
            {
              OFFSET -0.979230 -7.855660 -0.920098
              CHANNELS 3 Zrotation Xrotation Yrotation
              JOINT HandTipLeft
              {
                OFFSET 0.081152 -6.870822 -0.441148
                CHANNELS 3 Zrotation Xrotation Yrotation
                End Site
                {
                  OFFSET 0 0 0
                }
              }
              JOINT ThumbLeft
              {
                OFFSET 2.619263 0.434861 -2.718724
                CHANNELS 3 Zrotation Xrotation Yrotation
                End Site
                {
                  OFFSET 0 0 0
                }
              }
            }
          }
        }
      }
      JOINT ShoulderRight
      {
        OFFSET 15.023662 -5.467200 10.702074
        CHANNELS 3 Zrotation Xrotation Yrotation
        JOINT ElbowRight
        {
          OFFSET -2.724034 -28.981965 -5.472592
          CHANNELS 3 Zrotation Xrotation Yrotation
          JOINT WristRight
          {
            OFFSET 0.254352 -28.853477 -3.333742
            CHANNELS 3 Zrotation Xrotation Yrotation
            JOINT HandRight
            {
              OFFSET 1.467701 -10.282625 0.352708
              CHANNELS 3 Zrotation Xrotation Yrotation
              JOINT HandTipRight
              {
                OFFSET 0.495664 -9.366983 0.993956
                CHANNELS 3 Zrotation Xrotation Yrotation
                End Site
                {
                  OFFSET 0 0 0
                }
              }
              JOINT ThumbRight
              {
                OFFSET -5.044529 0.189202 -4.854048
                CHANNELS 3 Zrotation Xrotation Yrotation
                End Site
                {
                  OFFSET 0 0 0
                }
              }
            }
          }
        }
      }
    }
  }
  JOINT HipLeft
  {
    OFFSET -6.882137 2.087754 -7.985837
    CHANNELS 3 Zrotation Xrotation Yrotation
    JOINT KneeLeft
    {
      OFFSET -6.706771 -36.251605 1.011748
      CHANNELS 3 Zrotation Xrotation Yrotation
      JOINT AnkleLeft
      {
        OFFSET -4.082525 -34.962850 12.407744
        CHANNELS 3 Zrotation Xrotation Yrotation
        JOINT FootLeft
        {
          OFFSET 6.589068 -4.001252 -11.883348
          CHANNELS 3 Zrotation Xrotation Yrotation
          End Site
          {
            OFFSET 0 0 0
          }
        }
      }
    }
  }
  JOINT HipRight
  {
    OFFSET 5.999894 0.333603 0.577927
    CHANNELS 3 Zrotation Xrotation Yrotation
    JOINT KneeRight
    {
      OFFSET 2.679906 -36.490983 5.800385
      CHANNELS 3 Zrotation Xrotation Yrotation
      JOINT AnkleRight
      {
        OFFSET -4.055001 -36.205499 12.578434
        CHANNELS 3 Zrotation Xrotation Yrotation
        JOINT FootRight
        {
          OFFSET 6.774616 -3.658329 -12.637019
          CHANNELS 3 Zrotation Xrotation Yrotation
          End Site
          {
            OFFSET 0 0 0
          }
        }
      }
    }
  }
}
MOTION
Frames: 14
Frame Time: 0.033333
32.699065 78.655288 297.141304 -0.000000 0.000000 -33.615311 -0.000000 0.000000 33.615311 -0.000000 0.000000 0.000000 -0.000000 0.000000 0.000000 0.000000 0.000000 0.000000 -0.000000 0.000000 0.000000 -0.000000 0.000000 0.000000 -0.000000 0.000000 0.000000 -0.000000 0.000000 0.000000 0.000000 0.000000 0.000000 0.000000 0.000000 0.000000 -0.000000 0.000000 0.000000 -0.000000 0.000000 0.000000 -0.000000 0.000000 0.000000 -0.000000 0.000000 0.000000 0.000000 0.000000 0.000000 0.000000 0.000000 0.000000 -0.000000 0.000000 33.615311 -0.000000 0.000000 0.000000 -0.000000 0.000000 0.000000 0.000000 0.000000 0.000000 -0.000000 0.000000 33.615311 -0.000000 0.000000 0.000000 -0.000000 0.000000 0.000000 0.000000 0.000000 0.000000
33.261058 78.762205 297.432698 0.362512 0.034586 -33.517237 -0.283137 -0.229008 33.516562 -0.000000 0.000000 0.000000 -0.000000 0.000000 0.000000 0.000000 0.000000 0.000000 -0.000000 0.000000 0.000000 -0.000000 0.000000 0.000000 4.073175 -1.683671 -0.208793 -2.163006 2.344706 0.145554 0.000000 0.000000 0.000000 0.000000 0.000000 0.000000 3.035322 -4.634330 -0.014764 -2.394470 3.855359 0.130859 -3.429554 9.595160 1.514176 3.205168 -6.256202 -0.691972 0.000000 0.000000 0.000000 0.000000 0.000000 0.000000 -0.283137 -0.229008 33.516562 -0.000000 0.000000 0.000000 -0.000000 0.000000 0.000000 0.000000 0.000000 0.000000 -0.283137 -0.229008 33.516562 -0.000000 0.000000 0.000000 -1.455618 -2.592264 0.216221 0.000000 0.000000 0.000000
33.786119 78.859055 297.706852 0.692150 0.066596 -33.414846 -0.541079 -0.436744 33.412381 -0.000000 0.000000 0.000000 -0.000000 0.000000 0.000000 0.000000 0.000000 0.000000 -0.000000 0.000000 0.000000 1.229474 -0.505300 -0.228572 6.824942 -2.580492 -0.174563 -4.325294 4.304474 0.307795 0.000000 0.000000 0.000000 0.000000 0.000000 0.000000 5.670935 -8.674315 0.179009 -4.477771 7.236330 0.361397 -8.080494 21.161937 4.206740 7.467909 -13.857171 -0.668998 0.000000 0.000000 0.000000 0.000000 0.000000 0.000000 -0.541079 -0.436744 33.412381 -0.000000 0.000000 0.000000 -0.000000 0.000000 0.000000 0.000000 0.000000 0.000000 -0.541079 -0.436744 33.412381 -1.014379 0.006372 -0.352736 -1.679299 -4.852121 0.767489 0.000000 0.000000 0.000000
34.274247 78.945837 297.963767 0.988414 0.095987 -33.308369 -0.773370 -0.622975 33.303337 -0.000000 0.000000 0.000000 0.792709 0.402938 -0.165057 0.000000 0.000000 0.000000 0.924160 -0.536134 0.113796 1.052136 -0.178190 -0.489705 9.868285 -3.464428 -0.193173 -6.435795 5.816544 0.491838 0.000000 0.000000 0.000000 0.000000 0.000000 0.000000 7.864454 -12.035078 0.491277 -6.205540 10.076034 0.632588 -14.283664 33.246007 8.572783 12.924731 -20.872408 0.838460 0.000000 0.000000 0.000000 0.000000 0.000000 0.000000 -1.725192 -0.856815 33.204876 0.527947 0.651878 -0.165110 0.399291 -0.976354 0.258437 0.000000 0.000000 0.000000 -1.779556 -0.235245 33.260272 -0.799785 -0.883911 -0.476347 -2.230085 -6.575656 1.115266 0.000000 0.000000 0.000000
34.725443 79.022552 298.203442 1.250861 0.122717 -33.198006 -0.359244 -0.189762 33.225009 -0.846433 -0.160180 -0.030968 1.121562 0.503478 -0.197170 0.000000 0.000000 0.000000 1.208629 -0.645463 0.127574 1.607256 -0.250880 -0.665498 12.551847 -4.028027 -0.204249 -8.451126 6.841223 0.700872 0.000000 0.000000 0.000000 0.000000 0.000000 0.000000 9.585979 -14.687072 0.839028 -7.555801 12.358253 0.893097 -21.588320 43.246211 14.366051 19.320462 -23.568718 4.230540 0.000000 0.000000 0.000000 0.000000 0.000000 0.000000 -2.196470 -1.060260 33.056959 0.639394 0.779995 -0.210606 0.422608 -0.889520 1.186140 0.000000 0.000000 0.000000 -2.288397 -0.282993 33.131007 -0.963313 -1.171037 -0.595933 -2.489736 -7.633682 1.472831 0.000000 0.000000 0.000000
35.139708 79.089200 298.425879 1.479105 0.146753 -33.083923 -0.394967 -0.216510 33.116381 -0.104932 -0.031349 0.035164 0.557710 0.436707 -0.286121 0.000000 0.000000 0.000000 0.554392 -0.868759 0.059594 2.272225 -0.336004 -0.847393 14.810918 -4.257535 -0.235955 -10.337766 7.362227 0.935638 0.000000 0.000000 0.000000 0.000000 0.000000 0.000000 9.877127 -16.793675 1.108946 -8.522095 14.096830 1.104188 -27.931967 49.195907 19.659330 25.767344 -17.803034 8.773532 0.000000 0.000000 0.000000 0.000000 0.000000 0.000000 -2.615795 -1.222805 32.905413 0.718007 0.869826 -0.252864 0.512586 -1.017659 1.507948 0.000000 0.000000 0.000000 -2.752165 -0.316131 32.997830 -1.080250 -1.452696 -0.695747 -2.413700 -7.933359 1.854347 0.000000 0.000000 0.000000
35.634735 79.161526 298.697930 1.748919 0.165893 -32.933214 -0.401666 -0.238069 32.973484 -0.111617 -0.043059 0.045099 0.797316 0.451020 -0.270100 0.000000 0.000000 0.000000 0.509484 -0.830472 0.006590 3.546247 -0.668577 -1.087677 16.372686 -3.570033 -0.431365 -12.042355 6.749471 1.246519 0.000000 0.000000 0.000000 0.000000 0.000000 0.000000 10.064101 -17.885595 1.296720 -8.937122 15.333388 1.194576 -28.789893 48.214473 19.626526 40.198029 14.399537 16.423711 0.000000 0.000000 0.000000 0.000000 0.000000 0.000000 -3.106152 -1.396028 32.709277 0.759929 0.929255 -0.310746 0.650260 -1.124076 1.909844 0.000000 0.000000 0.000000 -3.371333 -0.364856 32.812821 -1.070837 -1.806111 -0.775869 -1.965324 -7.431686 2.317823 0.000000 0.000000 0.000000
36.024718 79.216710 298.921194 1.944994 0.177494 -32.803148 -0.387636 -0.247515 32.849888 -0.109598 -0.056384 0.053644 1.070900 0.523324 -0.280138 0.000000 0.000000 0.000000 0.627828 -0.799552 -0.049532 4.593440 -0.846043 -1.302704 17.673036 -3.110332 -0.569978 -13.484055 6.861841 1.454710 0.000000 0.000000 0.000000 0.000000 0.000000 0.000000 8.952901 -16.840670 1.101636 -8.288638 14.677680 1.032099 -23.590000 42.884634 15.057284 46.018972 51.692358 9.064057 0.000000 0.000000 0.000000 0.000000 0.000000 0.000000 -3.473345 -1.479271 32.539073 0.715922 0.889492 -0.363149 0.790246 -1.145840 2.294408 0.000000 0.000000 0.000000 -3.919886 -0.479612 32.631838 -0.872985 -2.090615 -0.782537 -1.282969 -6.158344 2.717559 0.000000 0.000000 0.000000
36.255975 79.253505 299.038444 2.031350 0.189270 -32.728364 -0.356097 -0.250715 32.778815 -0.100127 -0.069949 0.058964 1.357680 0.575931 -0.276123 0.000000 0.000000 0.000000 0.768910 -0.734353 -0.105945 5.584987 -0.960389 -1.490081 18.414671 -2.007578 -0.917413 -14.793958 5.716529 1.757344 0.000000 0.000000 0.000000 0.000000 0.000000 0.000000 8.849258 -16.870000 1.097651 -8.334397 14.851706 1.044990 -19.568070 37.668354 11.605059 44.860014 17.780515 13.051913 0.000000 0.000000 0.000000 0.000000 0.000000 0.000000 -3.660513 -1.496214 32.438886 0.739889 0.919061 -0.376962 0.793836 -1.217982 2.570698 0.000000 0.000000 0.000000 -4.135654 -0.375383 32.563110 -0.950625 -2.424537 -0.831315 -0.286765 -4.204542 3.001596 0.000000 0.000000 0.000000
36.347364 79.250448 299.050779 2.010696 0.212800 -32.698097 -0.312222 -0.240825 32.749347 -0.079524 -0.087471 0.061476 1.671120 0.659063 -0.296198 0.000000 0.000000 0.000000 0.904128 -0.741109 -0.121893 6.260365 -0.812025 -1.657478 19.034932 -1.454401 -1.105187 -17.174588 5.079849 2.132462 0.000000 0.000000 0.000000 0.000000 0.000000 0.000000 8.974286 -17.141830 1.141851 -8.501290 15.198204 1.087520 -15.395686 28.664010 7.542485 42.986786 8.238905 10.653066 0.000000 0.000000 0.000000 0.000000 0.000000 0.000000 -3.662924 -1.483424 32.401153 0.689539 1.050913 -0.411821 0.811296 -1.342401 2.828411 0.000000 0.000000 0.000000 -4.100561 -0.241908 32.556754 -1.092254 -2.667342 -0.869550 0.905143 -1.742016 3.163049 0.000000 0.000000 0.000000
36.495599 79.243402 299.142742 2.071122 0.230343 -32.561714 -0.286472 -0.230305 32.615783 -0.058772 -0.098946 0.066821 1.762628 0.708320 -0.318882 0.000000 0.000000 0.000000 0.879083 -0.681578 -0.164936 6.932830 -0.792746 -1.772317 18.406921 -1.237604 -1.028411 -17.012358 4.919570 2.122896 0.000000 0.000000 0.000000 0.000000 0.000000 0.000000 8.931694 -17.260572 1.154241 -8.546846 15.262139 1.097120 -11.173651 22.976835 5.115524 52.975988 -20.584785 19.978745 0.000000 0.000000 0.000000 0.000000 0.000000 0.000000 -3.840924 -1.455516 32.234118 0.669037 0.942169 -0.422675 0.859374 -1.329534 3.060105 0.000000 0.000000 0.000000 -4.111285 -0.252082 32.425124 -1.307939 -2.627812 -0.949217 2.395183 0.897170 3.255814 0.000000 0.000000 0.000000
36.653312 79.223637 299.252301 2.133229 0.233787 -32.379549 -0.287682 -0.226087 32.435577 -0.057331 -0.102075 0.069636 1.916499 0.680870 -0.292375 0.000000 0.000000 0.000000 0.827280 -0.693157 -0.167699 7.165611 -0.557562 -1.847242 17.035375 -1.336017 -0.783876 -14.426024 3.541981 1.932410 0.000000 0.000000 0.000000 0.000000 0.000000 0.000000 8.502105 -16.947812 1.100957 -8.173497 14.776357 0.989222 -12.092348 30.253646 7.093636 45.394256 -26.774526 19.662532 0.000000 0.000000 0.000000 0.000000 0.000000 0.000000 -4.037450 -1.474702 32.028371 0.646100 0.915261 -0.459737 0.961334 -1.370906 3.248993 0.000000 0.000000 0.000000 -4.089502 -0.360603 32.234166 -1.507861 -2.398086 -1.021245 1.490898 -1.293537 3.597979 0.000000 0.000000 0.000000
36.832001 79.194684 299.360380 2.214246 0.237421 -32.177098 -0.279138 -0.198932 32.236333 -0.045965 -0.092260 0.074920 2.124579 0.605684 -0.247860 0.000000 0.000000 0.000000 0.708544 -0.707976 -0.182115 7.385762 -0.348700 -1.905543 14.512589 -1.257570 -0.480244 -11.122224 3.469322 1.533325 0.000000 0.000000 0.000000 0.000000 0.000000 0.000000 8.642443 -17.513242 1.192867 -8.380452 15.172027 1.034085 -9.012405 27.571320 5.665920 25.785721 -14.776360 7.604615 0.000000 0.000000 0.000000 0.000000 0.000000 0.000000 -4.223108 -1.577686 31.814639 0.648196 0.939076 -0.504440 1.086189 -1.392614 3.325810 0.000000 0.000000 0.000000 -4.151284 -0.681252 31.980639 -1.550170 -1.913150 -1.060794 1.691182 -1.513237 3.708489 0.000000 0.000000 0.000000
37.024625 79.161169 299.474932 2.244723 0.251179 -31.885072 -0.315713 -0.227101 31.943374 -0.071342 -0.104135 0.072362 2.696718 0.686387 -0.250394 0.000000 0.000000 0.000000 0.748614 -0.783454 -0.144718 7.035170 -0.088893 -1.896905 11.542203 -2.030188 0.080834 -7.224801 2.789874 1.058769 0.000000 0.000000 0.000000 0.000000 0.000000 0.000000 8.665667 -17.425975 1.179584 -8.318153 14.875848 1.016776 -11.440540 31.483790 7.191673 22.119763 -17.255853 6.128840 0.000000 0.000000 0.000000 0.000000 0.000000 0.000000 -4.328958 -1.680855 31.521161 0.646394 0.920237 -0.543952 1.133448 -1.317838 3.599855 0.000000 0.000000 0.000000 -4.166664 -1.027154 31.631128 -1.570141 -1.314517 -1.095846 1.846641 -1.787721 4.040767 0.000000 0.000000 0.000000
